<svg width="30" height="35" viewBox="0 0 103 126" fill="none" xmlns="http://www.w3.org/2000/svg">
<path d="M33.5 15.5V12C33.5 6.47715 37.9772 2 43.5 2H58C63.5228 2 68 6.47715 68 12V15.5M33.5 15.5L11.3664 16.9053C6.10014 17.2397 2 21.6084 2 26.8852V38.5M33.5 15.5H68M68 15.5L91.6049 16.9306C96.8832 17.2505 101 21.6244 101 26.9123V38.5M101 38.5H2M101 38.5L91.1224 115.276C90.4806 120.264 86.2337 124 81.2041 124H23.1443C18.1802 124 13.9676 120.358 13.2495 115.447L2 38.5" stroke="black" stroke-width="3"/>
<path d="M28.5 57V103M28.5 57V103" stroke="black" stroke-width="3"/>
<path d="M44 57V103M44 57V103" stroke="black" stroke-width="3"/>
<path d="M61 57V103M61 57V103" stroke="black" stroke-width="3"/>
<path d="M79 57V103M79 57V103" stroke="black" stroke-width="3"/>
</svg>
