<svg width="100" height="56" viewBox="0 0 479 440" fill="none" xmlns="http://www.w3.org/2000/svg">
<g filter="url(#filter0_d_1_28)">
<path d="M246.959 46.5231C250.978 38.0661 263.375 39.2765 265.682 48.3512L293.176 156.48C294.214 160.565 297.702 163.559 301.896 163.969L421.458 175.642C431.35 176.608 433.928 189.849 425.122 194.456L324.193 247.255C320.087 249.402 317.995 254.089 319.136 258.58L345.869 363.717C348.235 373.022 337.402 379.99 329.916 373.978L237.208 299.523C234.11 297.035 229.832 296.617 226.311 298.459L120.952 353.575C112.445 358.026 103.164 349.094 107.285 340.422L153.85 242.442C155.839 238.257 154.692 233.254 151.08 230.352L62.2696 159.028C54.5203 152.805 59.611 140.313 69.5031 141.279L189.065 152.952C193.259 153.362 197.26 151.098 199.069 147.292L246.959 46.5231Z" fill="#FFCC00"/>
</g>
<path d="M251.114 81.9494L276.051 180.024L386.682 190.825L291.463 240.637L316.4 338.711L232.614 271.422L137.396 321.234L180.832 229.835L97.0465 162.546L207.677 173.348L251.114 81.9494Z" fill="#FFFF00"/>
<path d="M260.596 136.871L259.515 146.361L256.226 145.986L256.385 144.589C256.522 143.386 256.579 142.458 256.555 141.807C256.552 141.138 256.48 140.648 256.339 140.338C256.2 140.007 255.996 139.807 255.729 139.737C255.483 139.65 255.186 139.587 254.837 139.547L239.38 137.786L237.848 151.234L247.89 152.378C248.084 152.401 248.25 152.41 248.388 152.406C248.529 152.382 248.657 152.289 248.774 152.125C248.893 151.942 249.006 151.641 249.113 151.22C249.239 150.802 249.378 150.189 249.529 149.381L251.858 149.646L250.79 159.019L248.461 158.754C248.494 157.951 248.495 157.332 248.466 156.897C248.44 156.441 248.379 156.11 248.285 155.903C248.193 155.676 248.071 155.534 247.92 155.478C247.77 155.421 247.587 155.381 247.374 155.357L237.506 154.232L235.854 168.728L251.573 170.519C252.019 170.57 252.379 170.523 252.651 170.377C252.945 170.214 253.179 169.886 253.352 169.395C253.546 168.906 253.713 168.217 253.853 167.329C253.994 166.441 254.145 165.289 254.306 163.872L257.566 164.243L256.412 174.373L224.946 170.788L225.274 167.906L228.622 168.288C229.087 168.341 229.454 168.314 229.722 168.207C229.99 168.1 230.195 167.936 230.338 167.717C230.481 167.497 230.578 167.252 230.628 166.983C230.68 166.694 230.723 166.404 230.756 166.113L233.791 139.479C233.844 139.013 233.88 138.614 233.898 138.282C233.938 137.933 233.913 137.635 233.823 137.389C233.752 137.145 233.588 136.949 233.329 136.802C233.09 136.657 232.728 136.556 232.243 136.501L229.129 136.146L229.45 133.323L260.596 136.871Z" fill="black"/>
<path d="M178.141 174.026C180.916 174.342 183.22 174.821 185.054 175.463C186.909 176.087 188.364 176.862 189.418 177.788C190.492 178.716 191.204 179.8 191.554 181.039C191.926 182.261 192.025 183.638 191.85 185.171C191.372 189.363 188.822 191.903 184.2 192.792C186.904 193.729 188.865 195.063 190.083 196.794C191.302 198.525 191.769 200.633 191.486 203.117C191.325 204.533 190.939 205.846 190.33 207.054C189.723 208.243 188.812 209.25 187.597 210.075C186.385 210.88 184.836 211.45 182.95 211.786C181.064 212.122 178.772 212.136 176.075 211.828L158.726 209.852L159.054 206.97L160.888 207.179C161.684 207.27 162.301 207.291 162.739 207.242C163.179 207.174 163.507 207.055 163.723 206.883C163.959 206.713 164.101 206.503 164.149 206.253C164.218 205.986 164.271 205.697 164.306 205.386L167.46 177.704C167.505 177.316 167.502 176.991 167.453 176.73C167.405 176.469 167.213 176.251 166.879 176.075C166.567 175.882 166.075 175.718 165.402 175.582C164.749 175.449 163.84 175.316 162.676 175.183L163.004 172.302L178.141 174.026ZM171.412 190.126L177.292 190.796C178.669 190.953 179.91 190.937 181.012 190.748C182.117 190.54 183.063 190.176 183.849 189.656C184.636 189.136 185.261 188.48 185.725 187.687C186.191 186.876 186.484 185.946 186.603 184.898C186.709 183.966 186.652 183.085 186.432 182.254C186.215 181.404 185.791 180.638 185.161 179.957C184.531 179.276 183.662 178.705 182.555 178.244C181.469 177.767 180.111 177.435 178.481 177.25L172.95 176.619L171.412 190.126ZM169.392 207.853L175.563 208.556C178.881 208.934 181.399 208.572 183.117 207.471C184.835 206.369 185.821 204.702 186.075 202.471C186.228 201.132 186.135 199.961 185.797 198.959C185.461 197.938 184.853 197.063 183.973 196.334C183.095 195.585 181.926 194.98 180.465 194.519C179.023 194.06 177.264 193.712 175.188 193.475L171.083 193.008L169.392 207.853Z" fill="black"/>
<path d="M170.015 251.189C171.349 251.38 172.773 251.562 174.287 251.735C175.82 251.909 177.295 252.077 178.711 252.239C179.759 252.358 180.788 252.475 181.797 252.59C182.806 252.705 183.875 252.807 185.005 252.897L184.677 255.779L183.309 255.623C182.436 255.523 181.751 255.494 181.255 255.536C180.759 255.578 180.384 255.673 180.131 255.821C179.9 255.952 179.752 256.132 179.687 256.36C179.624 256.569 179.578 256.8 179.549 257.052L177.449 275.478C177.22 277.496 177.166 279.259 177.289 280.767C177.432 282.277 177.808 283.549 178.417 284.581C179.046 285.616 179.946 286.436 181.115 287.041C182.287 287.627 183.795 288.025 185.638 288.235C187.617 288.46 189.247 288.39 190.527 288.025C191.807 287.66 192.832 287.03 193.603 286.135C194.395 285.222 194.988 284.071 195.382 282.681C195.776 281.291 196.077 279.684 196.285 277.86L198.395 259.347C198.437 258.978 198.453 258.665 198.442 258.408C198.432 258.152 198.32 257.933 198.105 257.751C197.889 257.569 197.533 257.42 197.035 257.305C196.539 257.169 195.816 257.048 194.865 256.939L193.468 256.78L193.796 253.898C194.471 254.015 195.216 254.119 196.031 254.212C196.865 254.307 197.7 254.402 198.534 254.497C199.116 254.564 199.66 254.625 200.164 254.683C200.671 254.721 201.254 254.778 201.914 254.853C202.593 254.93 203.399 255.022 204.33 255.128C205.283 255.217 206.488 255.344 207.943 255.51L207.615 258.392L206.13 258.223C205.296 258.128 204.649 258.113 204.189 258.179C203.751 258.227 203.415 258.326 203.182 258.477C202.968 258.629 202.83 258.81 202.766 259.019C202.723 259.23 202.688 259.452 202.661 259.685L200.555 278.169C200.265 280.711 199.76 282.905 199.039 284.749C198.339 286.576 197.365 288.047 196.118 289.163C194.87 290.279 193.318 291.046 191.462 291.464C189.628 291.864 187.44 291.919 184.897 291.63C182.122 291.314 179.839 290.739 178.047 289.906C176.274 289.075 174.905 287.975 173.94 286.607C172.978 285.22 172.37 283.568 172.117 281.652C171.863 279.736 171.879 277.526 172.164 275.023L174.3 256.277C174.335 255.967 174.345 255.712 174.328 255.514C174.314 255.296 174.207 255.107 174.009 254.947C173.811 254.786 173.483 254.651 173.024 254.539C172.584 254.43 171.957 254.329 171.142 254.236L169.686 254.071L170.015 251.189Z" fill="black"/>
<path d="M282.062 258.245C284.449 258.517 286.476 259.013 288.143 259.734C289.811 260.455 291.153 261.355 292.17 262.434C293.187 263.513 293.891 264.753 294.282 266.154C294.675 267.535 294.781 269.022 294.6 270.613C294.418 272.204 294 273.631 293.345 274.893C292.693 276.136 291.759 277.17 290.545 277.994C289.352 278.802 287.852 279.368 286.046 279.693C284.259 280.021 282.134 280.044 279.669 279.763L272.916 278.994L271.672 289.909C271.61 290.453 271.62 290.886 271.701 291.21C271.784 291.514 271.963 291.761 272.236 291.949C272.512 292.118 272.88 292.248 273.341 292.34C273.805 292.413 274.386 292.489 275.085 292.568L276.569 292.738L276.241 295.619C275.717 295.56 275.212 295.502 274.727 295.447C274.244 295.372 273.741 295.305 273.217 295.245C272.712 295.188 272.159 295.125 271.558 295.056C270.978 294.971 270.309 294.885 269.552 294.798C267.767 294.595 266.175 294.423 264.775 294.284C263.376 294.144 261.997 293.996 260.639 293.842L260.967 290.96L262.481 291.132C263.373 291.234 264.068 291.264 264.564 291.222C265.062 291.161 265.439 291.047 265.694 290.879C265.949 290.712 266.112 290.485 266.184 290.198C266.256 289.911 266.314 289.574 266.359 289.186L269.496 261.649C269.547 261.203 269.529 260.847 269.441 260.581C269.353 260.316 269.132 260.104 268.776 259.945C268.442 259.77 267.937 259.634 267.26 259.537C266.585 259.421 265.695 259.299 264.589 259.173L264.917 256.292L282.062 258.245ZM273.258 275.995L278.817 276.629C282.097 277.002 284.593 276.658 286.307 275.595C288.042 274.515 289.056 272.684 289.35 270.103C289.494 268.842 289.446 267.706 289.208 266.696C288.969 265.686 288.509 264.808 287.827 264.062C287.145 263.316 286.222 262.71 285.056 262.243C283.893 261.756 282.448 261.415 280.721 261.218L275.015 260.568L273.258 275.995Z" fill="black"/>
<path d="M273.033 184.305C274.193 184.476 275.404 184.634 276.665 184.778C277.946 184.924 279.11 185.056 280.158 185.176C280.255 185.187 280.556 185.221 281.061 185.279C281.587 185.319 282.151 185.373 282.752 185.442C283.354 185.51 283.917 185.574 284.441 185.634C284.986 185.677 285.327 185.706 285.463 185.721L293.414 218.413C293.445 218.319 293.677 217.834 294.111 216.959C294.566 216.068 295.139 214.924 295.829 213.528C296.54 212.115 297.339 210.536 298.226 208.789C299.116 207.023 300.018 205.229 300.933 203.406C301.87 201.567 302.782 199.774 303.669 198.027C304.558 196.261 305.358 194.681 306.067 193.288C306.778 191.875 307.352 190.721 307.788 189.828C308.243 188.936 308.496 188.444 308.546 188.351C308.623 188.36 308.827 188.383 309.157 188.421C309.487 188.458 309.874 188.512 310.318 188.582C310.764 188.633 311.229 188.696 311.712 188.771C312.217 188.828 312.691 188.892 313.135 188.962C313.581 189.013 313.96 189.056 314.27 189.092C314.581 189.127 314.775 189.149 314.852 189.158C315.338 189.213 315.852 189.272 316.395 189.334C316.958 189.398 317.511 189.461 318.054 189.523C318.619 189.568 319.164 189.62 319.688 189.68C320.214 189.72 320.701 189.756 321.15 189.787L320.821 192.669L319.017 192.463C318.26 192.377 317.662 192.358 317.224 192.406C316.808 192.438 316.493 192.53 316.279 192.682C316.067 192.815 315.928 193.006 315.86 193.254C315.793 193.501 315.74 193.79 315.702 194.12L312.605 221.308C312.534 221.929 312.518 222.418 312.555 222.776C312.613 223.137 312.748 223.417 312.961 223.619C313.176 223.8 313.485 223.934 313.888 224.019C314.311 224.107 314.852 224.188 315.512 224.263L317.287 224.465L316.959 227.347C316.28 227.27 315.62 227.195 314.979 227.122C314.361 227.031 313.712 226.948 313.032 226.87C312.373 226.795 311.664 226.714 310.908 226.628C310.153 226.523 309.31 226.417 308.378 226.311C307.66 226.229 307.019 226.165 306.454 226.121C305.911 226.059 305.406 226.001 304.94 225.948C304.475 225.895 304.017 225.853 303.569 225.822C303.142 225.773 302.686 225.721 302.201 225.666L302.529 222.784L304.276 222.983C305.052 223.071 305.66 223.082 306.1 223.014C306.562 222.929 306.903 222.781 307.124 222.57C307.364 222.362 307.521 222.104 307.595 221.798C307.672 221.473 307.732 221.116 307.776 220.728L311.129 191.299L307.691 197.925L293.963 224.727L290.674 224.352C290.166 222.427 289.648 220.412 289.122 218.308C288.595 216.203 288.06 214.078 287.518 211.933C286.998 209.77 286.467 207.616 285.925 205.471C285.386 203.306 284.859 201.201 284.345 199.157C283.831 197.113 283.337 195.15 282.863 193.268C282.39 191.386 281.939 189.644 281.512 188.043L278.146 217.588C278.082 218.151 278.06 218.6 278.081 218.937C278.123 219.256 278.242 219.506 278.438 219.685C278.634 219.865 278.933 219.997 279.336 220.082C279.739 220.168 280.28 220.249 280.96 220.326L282.706 220.525L282.378 223.407C281.873 223.35 281.398 223.295 280.952 223.245C280.507 223.174 280.033 223.11 279.529 223.053C279.043 222.998 278.519 222.938 277.957 222.874C277.396 222.79 276.757 222.708 276.039 222.626C275.263 222.537 274.543 222.465 273.881 222.41C273.222 222.334 272.591 222.263 271.989 222.194C271.407 222.128 270.834 222.072 270.269 222.027C269.706 221.963 269.133 221.898 268.551 221.832L268.88 218.95L270.684 219.156C271.558 219.255 272.213 219.281 272.651 219.232C273.109 219.186 273.436 219.076 273.632 218.902C273.849 218.73 273.974 218.489 274.01 218.178C274.065 217.87 274.116 217.502 274.165 217.075L277.298 189.833C277.354 189.348 277.338 188.963 277.253 188.678C277.17 188.374 277.01 188.139 276.773 187.975C276.555 187.812 276.245 187.688 275.842 187.603C275.458 187.52 274.985 187.446 274.422 187.382L272.705 187.187L273.033 184.305Z" fill="black"/>
<defs>
<filter id="filter0_d_1_28" x="28.5021" y="10.8136" width="411.993" height="375.408" filterUnits="userSpaceOnUse" color-interpolation-filters="sRGB">
<feFlood flood-opacity="0" result="BackgroundImageFix"/>
<feColorMatrix in="SourceAlpha" type="matrix" values="0 0 0 0 0 0 0 0 0 0 0 0 0 0 0 0 0 0 127 0" result="hardAlpha"/>
<feOffset dx="-10" dy="-10"/>
<feGaussianBlur stdDeviation="10"/>
<feComposite in2="hardAlpha" operator="out"/>
<feColorMatrix type="matrix" values="0 0 0 0 0 0 0 0 0 0 0 0 0 0 0 0 0 0 1 0"/>
<feBlend mode="normal" in2="BackgroundImageFix" result="effect1_dropShadow_1_28"/>
<feBlend mode="normal" in="SourceGraphic" in2="effect1_dropShadow_1_28" result="shape"/>
</filter>
</defs>
</svg>
