<svg width="27" height="24" viewBox="0 0 15 15" fill="none" xmlns="http://www.w3.org/2000/svg">
<circle cx="7.5" cy="7.5" r="7.5" fill="black"/>
<circle cx="7.5" cy="3.5" r="1.5" fill="#EAEAEA"/>
<path d="M9.5 11.349V6.83167C9.5 6.0405 8.62475 5.56266 7.95924 5.99049L6.42842 6.97459L7.36754 13.1316C7.42746 13.5244 7.88484 13.7114 8.20279 13.4729L10.1276 12.0293C10.3752 11.8436 10.1479 11.4584 9.86566 11.5855C9.69409 11.6627 9.5 11.5372 9.5 11.349Z" fill="#EAEAEA"/>
<path d="M6 7.25L6.42842 6.97459M6.42842 6.97459L7.95924 5.99049C8.62475 5.56266 9.5 6.0405 9.5 6.83167V11.349C9.5 11.5372 9.69409 11.6627 9.86566 11.5855V11.5855C10.1479 11.4584 10.3752 11.8436 10.1276 12.0293L8.20279 13.4729C7.88484 13.7114 7.42746 13.5244 7.36754 13.1316L6.42842 6.97459Z" stroke="#EAEAEA"/>
</svg>
