<svg width="35" height="38" viewBox="0 0 178 186" fill="none" xmlns="http://www.w3.org/2000/svg">
<rect x="10" y="10" width="132" height="132" rx="10" stroke="black" stroke-width="20"/>
<path d="M62 43V59.5C62 61.1569 60.6569 62.5 59 62.5H40C38.3431 62.5 37 63.8431 37 65.5V87.5C37 89.1569 38.3431 90.5 40 90.5H59C60.6569 90.5 62 91.8431 62 93.5V108C62 109.657 63.3431 111 65 111H88.5C90.1569 111 91.5 109.657 91.5 108V89.5C91.5 87.8431 92.8431 86.5 94.5 86.5H111.5C113.157 86.5 114.5 85.1569 114.5 83.5V65.5C114.5 63.8431 113.157 62.5 111.5 62.5H89C87.3431 62.5 86 61.1569 86 59.5V43C86 41.3431 84.6569 40 83 40H65C63.3431 40 62 41.3431 62 43Z" fill="#16082F" stroke="black"/>
<path d="M55 176H148C159.046 176 168 167.046 168 156V81" stroke="#16082F" stroke-width="20"/>
<circle cx="168" cy="82" r="10" fill="#16082F"/>
<circle cx="56" cy="176" r="10" fill="#16082F"/>
</svg>