<svg width="800" height="579" viewBox="0 0 800 579" fill="none" xmlns="http://www.w3.org/2000/svg">
<path d="M212 30.4017C174.5 77.9017 168.5 280.902 168.5 280.902L417 381.402L634 333.902C634 333.902 701 112.902 669.5 75.9017C638 38.9018 249.5 -17.0983 212 30.4017Z" fill="#A24FFF"/>
<path d="M135 120.902C115 118.902 32.5 160.401 32.5 189.902C32.5 219.402 135 260.902 135 260.902C135 260.902 155 122.902 135 120.902Z" fill="#A24FFF"/>
<path d="M5 461.902L32.5 241.402L273 381.402L5 461.902Z" fill="#A24FFF"/>
<path d="M32.5 540.902L5 495.402L385.5 398.902L740.5 578.401L32.5 540.902Z" fill="#A24FFF"/>
<path d="M752 540.902L778 333.902L506 398.902L752 540.902Z" fill="#A24FFF"/>
<path d="M795.5 260.902C779.5 280.402 687 310.402 687 310.402C687 310.402 687 211.902 703 189.902C719 167.901 811.5 241.402 795.5 260.902Z" fill="#A24FFF"/>
<path d="M212 30.4017C174.5 77.9017 168.5 280.902 168.5 280.902L417 381.402L634 333.902C634 333.902 701 112.902 669.5 75.9017C638 38.9018 249.5 -17.0983 212 30.4017Z" stroke="white"/>
<path d="M135 120.902C115 118.902 32.5 160.401 32.5 189.902C32.5 219.402 135 260.902 135 260.902C135 260.902 155 122.902 135 120.902Z" stroke="white"/>
<path d="M5 461.902L32.5 241.402L273 381.402L5 461.902Z" stroke="white"/>
<path d="M32.5 540.902L5 495.402L385.5 398.902L740.5 578.401L32.5 540.902Z" stroke="white"/>
<path d="M752 540.902L778 333.902L506 398.902L752 540.902Z" stroke="white"/>
<path d="M795.5 260.902C779.5 280.402 687 310.402 687 310.402C687 310.402 687 211.902 703 189.902C719 167.901 811.5 241.402 795.5 260.902Z" stroke="white"/>
<path d="M139 133.402C107.5 127.902 17 154.902 42.5 194.902C68 234.902 139 268.902 139 268.902C139 268.902 170.5 138.902 139 133.402Z" stroke="white" stroke-width="3"/>
<path d="M216 6.9017C171 24.9017 170.5 294.402 170.5 294.402L421 371.402L642 349.902C642 349.902 712.5 129.402 679 75.9017C645.5 22.4016 261 -11.0983 216 6.9017Z" stroke="white" stroke-width="3"/>
<path d="M710.5 194.902C675.786 198.902 679 325.902 679 325.902C679 325.902 792.5 294.402 797.5 256.902C802.5 219.402 745.214 190.902 710.5 194.902Z" stroke="white" stroke-width="3"/>
<path d="M778 325.902L736.5 548.902L500 406.902L778 325.902Z" stroke="white" stroke-width="3"/>
<path d="M265.5 371.402L3 469.902L19 256.902L265.5 371.402Z" stroke="white" stroke-width="3"/>
<path d="M42.5 548.902L3 501.402L397.5 406.902L736.5 572.402L42.5 548.902Z" stroke="white" stroke-width="3"/>
<path d="M309.269 140.467C307.383 140.202 305.977 139.542 305.051 138.487C304.128 137.408 303.804 135.889 304.08 133.929C304.107 133.733 304.135 133.537 304.162 133.341C304.218 133.124 304.273 132.907 304.329 132.69C304.304 132.686 304.28 132.683 304.255 132.68C304.259 132.655 304.248 132.641 304.224 132.638C300.339 136.813 296.143 138.585 291.635 137.951C289.945 137.713 288.448 137.166 287.144 136.308C285.841 135.45 284.771 134.351 283.936 133.009C283.1 131.668 282.517 130.124 282.188 128.379C281.883 126.637 281.87 124.774 282.149 122.79C282.352 121.345 282.748 119.864 283.336 118.347C283.927 116.807 284.684 115.327 285.608 113.908C286.536 112.464 287.612 111.116 288.837 109.864C290.062 108.613 291.411 107.553 292.882 106.685C294.377 105.821 295.976 105.197 297.679 104.812C299.386 104.402 301.182 104.329 303.069 104.595C305.396 104.922 307.268 105.734 308.684 107.033C310.104 108.307 311.091 110.169 311.646 112.62L314.047 106.737L319.118 107.45L310.258 129.701C310.122 130.131 309.96 130.571 309.773 131.019C309.609 131.471 309.446 131.923 309.282 132.374C309.122 132.801 308.976 133.218 308.844 133.624C308.712 134.03 308.624 134.393 308.579 134.711C308.304 136.671 309.023 137.772 310.738 138.013C311.547 138.126 312.493 138.059 313.577 137.812C314.665 137.54 315.79 137.086 316.954 136.45C318.362 135.674 319.682 134.723 320.915 133.597C322.147 132.471 323.253 131.177 324.233 129.716C325.217 128.231 326.047 126.586 326.725 124.783C327.407 122.955 327.899 120.963 328.202 118.807C328.609 115.916 328.487 113.051 327.836 110.212C327.211 107.375 326.026 104.786 324.282 102.442C322.541 100.074 320.225 98.062 317.335 96.4067C314.448 94.7269 310.947 93.5977 306.831 93.0193C302.373 92.3927 298.187 92.5789 294.274 93.5779C290.386 94.5803 286.929 96.2431 283.905 98.5661C280.905 100.893 278.423 103.792 276.462 107.263C274.5 110.735 273.214 114.639 272.605 118.975C272.04 122.993 272.236 126.756 273.192 130.263C274.148 133.77 275.735 136.878 277.952 139.588C280.169 142.298 282.963 144.552 286.333 146.35C289.703 148.147 293.519 149.346 297.782 149.945C302.069 150.547 306.26 150.412 310.355 149.538C314.471 148.693 318.419 146.912 322.198 144.195L324.82 145.276C322.993 146.718 321.03 147.978 318.929 149.057C316.854 150.139 314.648 150.991 312.312 151.612C309.976 152.233 307.537 152.615 304.994 152.757C302.472 152.927 299.875 152.825 297.205 152.449C292.281 151.757 287.915 150.382 284.107 148.323C280.32 146.291 277.181 143.739 274.69 140.666C272.22 137.621 270.459 134.151 269.408 130.255C268.381 126.364 268.174 122.237 268.787 117.877C269.186 115.035 269.93 112.316 271.02 109.721C272.109 107.126 273.482 104.734 275.139 102.543C276.82 100.356 278.768 98.4063 280.982 96.6939C283.225 94.9605 285.683 93.5572 288.357 92.484C291.059 91.3897 293.947 90.6589 297.022 90.2916C300.124 89.9032 303.39 89.95 306.82 90.432C311.328 91.0656 315.2 92.3093 318.437 94.1633C321.702 95.9962 324.323 98.2382 326.299 100.889C328.278 103.516 329.64 106.443 330.386 109.67C331.131 112.898 331.265 116.215 330.786 119.62C330.476 121.825 329.923 123.896 329.126 125.832C328.354 127.772 327.405 129.55 326.278 131.165C325.176 132.784 323.937 134.222 322.562 135.477C321.214 136.712 319.784 137.735 318.271 138.547C316.782 139.362 315.265 139.935 313.719 140.268C312.198 140.604 310.715 140.67 309.269 140.467ZM309.252 116.593C309.424 115.368 309.399 114.216 309.176 113.135C308.981 112.033 308.606 111.056 308.051 110.204C307.521 109.355 306.832 108.659 305.984 108.115C305.139 107.546 304.166 107.185 303.064 107.03C301.741 106.844 300.445 106.999 299.176 107.495C297.931 107.995 296.742 108.727 295.607 109.692C294.5 110.635 293.469 111.752 292.513 113.042C291.557 114.331 290.706 115.673 289.961 117.068C289.24 118.465 288.631 119.866 288.134 121.27C287.661 122.678 287.344 123.957 287.182 125.109C286.776 128 287.108 130.345 288.179 132.144C289.251 133.943 290.901 135 293.13 135.313C294.38 135.489 295.625 135.339 296.866 134.864C298.11 134.364 299.298 133.644 300.43 132.704C301.561 131.764 302.617 130.651 303.597 129.364C304.605 128.057 305.486 126.682 306.238 125.239C307.015 123.799 307.657 122.34 308.165 120.863C308.7 119.364 309.062 117.941 309.252 116.593ZM378.157 104.13L376.473 116.11L372.321 115.527L372.569 113.763C372.782 112.244 372.884 111.071 372.875 110.246C372.895 109.399 372.82 108.776 372.651 108.378C372.485 107.955 372.235 107.695 371.899 107.598C371.59 107.479 371.216 107.389 370.775 107.327L351.262 104.585L348.875 121.563L361.554 123.344C361.799 123.379 362.009 123.396 362.184 123.395C362.362 123.371 362.528 123.256 362.681 123.053C362.838 122.825 362.991 122.447 363.141 121.919C363.314 121.393 363.51 120.621 363.728 119.603L366.668 120.016L365.005 131.849L362.065 131.436C362.133 130.421 362.156 129.637 362.133 129.084C362.115 128.507 362.049 128.086 361.936 127.82C361.827 127.53 361.678 127.347 361.489 127.27C361.3 127.194 361.071 127.136 360.801 127.098L348.344 125.348L345.772 143.648L365.616 146.437C366.179 146.516 366.636 146.468 366.985 146.292C367.362 146.096 367.669 145.689 367.906 145.073C368.167 144.46 368.401 143.593 368.608 142.473C368.816 141.353 369.045 139.899 369.297 138.111L373.412 138.689L371.615 151.477L331.89 145.894L332.402 142.256L336.628 142.85C337.216 142.933 337.681 142.911 338.023 142.784C338.366 142.657 338.631 142.457 338.82 142.184C339.008 141.911 339.139 141.604 339.211 141.265C339.287 140.901 339.351 140.535 339.403 140.168L344.129 106.543C344.211 105.955 344.27 105.451 344.304 105.031C344.366 104.59 344.344 104.212 344.238 103.898C344.157 103.586 343.955 103.333 343.633 103.138C343.335 102.946 342.88 102.807 342.267 102.721L338.335 102.169L338.836 98.6041L378.157 104.13ZM383.826 104.852C385.289 105.108 386.817 105.347 388.41 105.571C390.027 105.798 391.496 106.005 392.819 106.191C392.942 106.208 393.322 106.261 393.959 106.351C394.624 106.419 395.336 106.507 396.095 106.614C396.855 106.721 397.565 106.82 398.227 106.913C398.916 106.985 399.346 107.033 399.518 107.057L408.503 148.717C408.544 148.598 408.854 147.992 409.433 146.899C410.039 145.785 410.802 144.356 411.722 142.612C412.669 140.846 413.734 138.872 414.915 136.69C416.099 134.483 417.301 132.241 418.521 129.964C419.768 127.666 420.982 125.426 422.163 123.243C423.348 121.037 424.412 119.063 425.357 117.322C426.304 115.556 427.069 114.115 427.651 112.997C428.257 111.883 428.593 111.269 428.659 111.153C428.757 111.167 429.015 111.203 429.431 111.261C429.847 111.32 430.336 111.401 430.896 111.505C431.459 111.584 432.045 111.679 432.655 111.789C433.291 111.879 433.89 111.975 434.45 112.079C435.013 112.158 435.491 112.225 435.883 112.281C436.275 112.336 436.52 112.37 436.618 112.384C437.231 112.47 437.88 112.561 438.566 112.658C439.276 112.757 439.974 112.856 440.66 112.952C441.374 113.027 442.062 113.111 442.724 113.204C443.388 113.273 444.004 113.334 444.571 113.389L444.06 117.027L441.782 116.707C440.826 116.573 440.07 116.529 439.514 116.576C438.986 116.601 438.584 116.707 438.308 116.893C438.035 117.055 437.852 117.292 437.758 117.603C437.665 117.915 437.588 118.279 437.53 118.695L432.706 153.018C432.596 153.802 432.559 154.421 432.595 154.876C432.655 155.334 432.817 155.694 433.08 155.956C433.347 156.193 433.734 156.373 434.241 156.494C434.773 156.619 435.456 156.74 436.289 156.857L438.53 157.172L438.019 160.81C437.162 160.689 436.329 160.572 435.52 160.459C434.74 160.324 433.921 160.196 433.063 160.076C432.23 159.959 431.336 159.833 430.381 159.699C429.429 159.54 428.365 159.378 427.189 159.213C426.282 159.085 425.472 158.984 424.758 158.909C424.072 158.812 423.435 158.723 422.847 158.64C422.259 158.558 421.682 158.489 421.115 158.434C420.576 158.358 420 158.278 419.388 158.191L419.899 154.553L422.104 154.863C423.084 155.001 423.854 155.034 424.413 154.963C425.001 154.871 425.438 154.695 425.724 154.435C426.035 154.179 426.242 153.858 426.347 153.473C426.454 153.064 426.542 152.614 426.611 152.124L431.833 114.972L427.259 123.248L408.988 156.73L404.835 156.146C404.256 153.691 403.668 151.123 403.07 148.441C402.473 145.759 401.867 143.05 401.252 140.316C400.665 137.56 400.064 134.815 399.449 132.08C398.837 129.321 398.24 126.639 397.657 124.034C397.073 121.429 396.513 118.927 395.976 116.528C395.439 114.129 394.926 111.908 394.439 109.866L389.197 147.166C389.097 147.876 389.055 148.445 389.07 148.871C389.112 149.277 389.255 149.597 389.497 149.831C389.739 150.065 390.113 150.242 390.621 150.364C391.129 150.485 391.811 150.606 392.669 150.726L394.874 151.036L394.362 154.674C393.725 154.585 393.125 154.5 392.562 154.421C392.002 154.318 391.403 154.221 390.766 154.131C390.154 154.045 389.492 153.952 388.782 153.853C388.075 153.728 387.268 153.602 386.361 153.475C385.382 153.337 384.473 153.222 383.637 153.13C382.804 153.012 382.008 152.901 381.248 152.794C380.513 152.691 379.789 152.601 379.075 152.526C378.365 152.426 377.642 152.324 376.907 152.221L377.418 148.583L379.697 148.903C380.799 149.058 381.628 149.112 382.184 149.066C382.765 149.022 383.183 148.894 383.438 148.68C383.717 148.469 383.885 148.168 383.94 147.776C384.019 147.387 384.097 146.923 384.173 146.385L389.043 111.993C389.13 111.381 389.123 110.893 389.024 110.529C388.929 110.141 388.734 109.839 388.44 109.623C388.17 109.41 387.781 109.243 387.274 109.121C386.791 109.004 386.194 108.895 385.483 108.795L383.315 108.49L383.826 104.852ZM470.222 116.994C473.235 117.418 475.785 118.113 477.873 119.081C479.96 120.049 481.63 121.233 482.882 122.633C484.134 124.033 484.985 125.627 485.433 127.414C485.885 129.176 485.97 131.062 485.687 133.071C485.405 135.079 484.828 136.872 483.957 138.449C483.09 140 481.873 141.278 480.308 142.283C478.771 143.266 476.853 143.933 474.555 144.285C472.282 144.64 469.59 144.599 466.478 144.161L457.953 142.963L456.016 156.744C455.92 157.43 455.917 157.979 456.009 158.392C456.105 158.78 456.322 159.098 456.662 159.345C457.006 159.568 457.468 159.746 458.049 159.877C458.633 159.985 459.367 160.1 460.249 160.224L462.123 160.488L461.612 164.126C460.95 164.033 460.313 163.943 459.701 163.857C459.092 163.746 458.456 163.645 457.795 163.552C457.158 163.462 456.46 163.364 455.7 163.257C454.969 163.13 454.125 162.999 453.17 162.864C450.916 162.547 448.905 162.277 447.138 162.054C445.371 161.831 443.629 161.598 441.914 161.357L442.426 157.719L444.337 157.988C445.464 158.146 446.342 158.207 446.972 158.171C447.605 158.11 448.086 157.978 448.414 157.774C448.742 157.57 448.957 157.288 449.058 156.928C449.158 156.567 449.243 156.142 449.312 155.652L454.198 120.888C454.277 120.324 454.265 119.873 454.163 119.534C454.061 119.195 453.787 118.919 453.342 118.707C452.925 118.473 452.29 118.284 451.436 118.139C450.585 117.969 449.462 117.786 448.066 117.59L448.577 113.952L470.222 116.994ZM458.485 139.178L465.504 140.165C469.644 140.746 472.816 140.393 475.021 139.104C477.254 137.794 478.599 135.51 479.057 132.251C479.281 130.659 479.258 129.219 478.99 127.932C478.721 126.645 478.167 125.518 477.329 124.551C476.49 123.584 475.341 122.785 473.881 122.155C472.424 121.501 470.605 121.02 468.425 120.714L461.222 119.702L458.485 139.178ZM499.978 170.305C497.651 169.978 495.839 169.361 494.542 168.454C493.246 167.547 492.314 166.355 491.748 164.876C491.209 163.376 490.958 161.605 490.996 159.561C491.061 157.497 491.278 155.154 491.646 152.533L493.283 140.883C493.369 140.271 493.375 139.785 493.301 139.424C493.251 139.068 493.053 138.79 492.706 138.591C492.359 138.393 491.832 138.231 491.125 138.107C490.443 137.986 489.526 137.845 488.374 137.683L488.824 134.486C489.902 134.637 490.906 134.778 491.837 134.909C492.768 135.04 493.674 135.167 494.556 135.291C495.466 135.394 496.376 135.497 497.286 135.6C498.224 135.682 499.223 135.772 500.283 135.871L497.556 155.274C497.34 156.818 497.199 158.26 497.136 159.6C497.097 160.943 497.233 162.112 497.543 163.105C497.877 164.101 498.427 164.903 499.191 165.51C499.979 166.12 501.084 166.525 502.505 166.725C503.828 166.911 505.06 166.947 506.2 166.832C507.368 166.696 508.442 166.435 509.421 166.048C510.403 165.636 511.288 165.111 512.078 164.473C512.867 163.834 513.549 163.156 514.125 162.437C514.302 161.538 514.452 160.647 514.576 159.765C514.703 158.858 514.832 157.94 514.963 157.009L516.74 144.367C516.833 143.706 516.842 143.195 516.768 142.835C516.721 142.454 516.514 142.15 516.146 141.923C515.803 141.7 515.278 141.526 514.571 141.402C513.864 141.278 512.91 141.131 511.709 140.962L512.159 137.765C514.021 138.027 515.921 138.281 517.86 138.529C519.823 138.78 521.794 138.982 523.771 139.135L519.846 167.063C519.784 167.504 519.795 167.868 519.88 168.155C519.968 168.417 520.187 168.635 520.537 168.81C520.912 168.987 521.44 169.136 522.123 169.257C522.805 169.378 523.71 169.518 524.837 169.676L524.377 172.947C522.173 172.637 520.174 172.369 518.382 172.142C516.591 171.915 514.858 171.709 513.185 171.524L513.877 166.599C511.925 168.224 509.769 169.345 507.409 169.962C505.052 170.556 502.575 170.67 499.978 170.305ZM551.022 177.478C548.253 177.089 545.902 176.222 543.968 174.876C542.058 173.533 540.518 171.693 539.347 169.355L538.505 175.082C537.724 174.947 536.797 174.792 535.722 174.616C534.669 174.468 533.605 174.306 532.53 174.13C531.452 173.979 530.438 173.823 529.485 173.665C528.555 173.534 527.82 173.431 527.281 173.355L527.74 170.084C529.088 170.274 530.136 170.371 530.885 170.376C531.633 170.381 532.182 170.296 532.532 170.121C532.906 169.948 533.14 169.706 533.233 169.395C533.352 169.087 533.442 168.712 533.504 168.271L538.612 131.927C538.68 131.437 538.622 131.054 538.436 130.778C538.253 130.478 537.938 130.233 537.489 130.046C537.066 129.861 536.513 129.708 535.83 129.587C535.148 129.467 534.355 129.33 533.452 129.178L533.922 125.834C536.053 126.134 538.088 126.407 540.027 126.655C541.966 126.902 543.821 127.125 545.592 127.324L542.876 147.179C544.538 145.489 546.457 144.272 548.636 143.529C550.814 142.786 553.201 142.596 555.798 142.961C558.223 143.302 560.37 144.029 562.237 145.14C564.104 146.252 565.629 147.666 566.812 149.381C568.02 151.1 568.855 153.066 569.319 155.279C569.81 157.472 569.87 159.891 569.498 162.537C569.136 165.109 568.428 167.396 567.372 169.396C566.317 171.396 564.984 173.057 563.374 174.38C561.767 175.678 559.913 176.604 557.812 177.159C555.711 177.713 553.447 177.819 551.022 177.478ZM554.011 146.608C552.272 146.363 550.659 146.461 549.173 146.902C547.712 147.346 546.412 148.063 545.274 149.052C544.163 150.02 543.232 151.313 542.48 152.932C541.731 154.525 541.209 156.375 540.913 158.482C540.62 160.565 540.616 162.463 540.899 164.176C541.183 165.89 541.722 167.39 542.516 168.676C543.309 169.961 544.347 171.019 545.63 171.849C546.916 172.654 548.428 173.179 550.168 173.424C551.858 173.661 553.434 173.558 554.895 173.114C556.357 172.669 557.648 171.927 558.769 170.885C559.917 169.822 560.864 168.506 561.609 166.937C562.358 165.344 562.879 163.506 563.171 161.423C563.461 159.365 563.448 157.502 563.132 155.834C562.842 154.169 562.301 152.682 561.511 151.372C560.721 150.061 559.683 149.004 558.397 148.198C557.139 147.372 555.677 146.842 554.011 146.608Z" fill="black"/>
</svg>
