<svg width="799" height="579" viewBox="0 0 799 579" fill="none" xmlns="http://www.w3.org/2000/svg">
<path d="M212.324 30.4006C174.889 77.9045 168.899 280.905 168.899 280.905L416.971 381.404L633.597 333.9C633.597 333.9 700.481 112.899 669.035 75.9002C637.59 38.9016 249.759 -17.0955 212.324 30.4006Z" fill="#EAEAEA"/>
<path d="M135.457 120.901C115.491 118.904 33.1336 160.403 33.1336 189.899C33.1336 219.402 135.457 260.901 135.457 260.901C135.457 260.901 155.422 122.905 135.457 120.901Z" fill="#EAEAEA"/>
<path d="M5.68103 461.905L33.1336 241.403L273.219 381.404L5.68103 461.905Z" fill="#EAEAEA"/>
<path d="M33.1336 540.902L5.68103 495.402L385.525 398.905L739.913 578.399L33.1336 540.902Z" fill="#EAEAEA"/>
<path d="M751.393 540.902L777.348 333.9L505.817 398.905L751.393 540.902Z" fill="#EAEAEA"/>
<path d="M794.818 260.901C778.846 280.399 686.505 310.401 686.505 310.401C686.505 310.401 686.505 211.9 702.478 189.899C718.45 167.898 810.791 241.403 794.818 260.901Z" fill="#EAEAEA"/>
<path d="M212.324 30.4006C174.889 77.9046 168.899 280.906 168.899 280.906L416.971 381.404L633.597 333.9C633.597 333.9 700.481 112.899 669.035 75.9002C637.59 38.9016 249.759 -17.0955 212.324 30.4006Z" stroke="white" stroke-width="0.999138"/>
<path d="M135.457 120.901C115.491 118.904 33.1336 160.403 33.1336 189.899C33.1336 219.403 135.457 260.901 135.457 260.901C135.457 260.901 155.422 122.905 135.457 120.901Z" stroke="white" stroke-width="0.999138"/>
<path d="M5.68103 461.906L33.1336 241.404L273.219 381.404L5.68103 461.906Z" stroke="white" stroke-width="0.999138"/>
<path d="M33.1336 540.902L5.68103 495.403L385.525 398.905L739.913 578.4L33.1336 540.902Z" stroke="white" stroke-width="0.999138"/>
<path d="M751.393 540.902L777.348 333.9L505.817 398.905L751.393 540.902Z" stroke="white" stroke-width="0.999138"/>
<path d="M794.818 260.901C778.846 280.399 686.505 310.402 686.505 310.402C686.505 310.402 686.505 211.9 702.478 189.899C718.45 167.898 810.791 241.404 794.818 260.901Z" stroke="white" stroke-width="0.999138"/>
<path d="M139.45 133.403C108.004 127.904 17.6603 154.904 43.1163 194.906C68.5724 234.899 139.45 268.903 139.45 268.903C139.45 268.903 170.896 138.901 139.45 133.403Z" stroke="#16082F" stroke-width="2.99741"/>
<path d="M216.317 6.90214C171.395 24.9023 170.896 294.406 170.896 294.406L420.964 371.406L641.583 349.904C641.583 349.904 711.961 129.402 678.519 75.9002C645.077 22.3988 261.24 -11.098 216.317 6.90214Z" stroke="#16082F" stroke-width="2.99741"/>
<path d="M709.965 194.906C675.314 198.899 678.519 325.906 678.519 325.906C678.519 325.906 791.823 294.406 796.815 256.9C801.806 219.403 744.616 190.905 709.965 194.906Z" stroke="#16082F" stroke-width="2.99741"/>
<path d="M777.348 325.906L735.92 548.904L499.828 406.899L777.348 325.906Z" stroke="#16082F" stroke-width="2.99741"/>
<path d="M265.732 371.406L3.68445 469.9L19.6569 256.9L265.732 371.406Z" stroke="#16082F" stroke-width="2.99741"/>
<path d="M43.1163 548.904L3.68445 501.4L397.504 406.899L735.92 572.403L43.1163 548.904Z" stroke="#16082F" stroke-width="2.99741"/>
<path d="M309.422 140.468C307.542 140.203 306.139 139.54 305.218 138.487C304.29 137.411 303.971 135.89 304.243 133.933C304.275 133.73 304.298 133.535 304.329 133.34C304.384 133.122 304.438 132.903 304.493 132.693C304.47 132.685 304.446 132.685 304.423 132.677C304.423 132.654 304.415 132.638 304.392 132.638C300.508 136.811 296.32 138.589 291.82 137.949C290.135 137.715 288.638 137.169 287.335 136.311C286.041 135.454 284.972 134.354 284.138 133.012C283.303 131.671 282.718 130.127 282.391 128.38C282.086 126.641 282.071 124.777 282.352 122.788C282.554 121.345 282.952 119.863 283.537 118.35C284.13 116.806 284.886 115.324 285.807 113.905C286.735 112.462 287.803 111.113 289.028 109.865C290.252 108.609 291.601 107.556 293.067 106.683C294.557 105.817 296.156 105.193 297.856 104.811C299.556 104.406 301.35 104.328 303.237 104.593C305.562 104.92 307.425 105.731 308.845 107.034C310.257 108.305 311.247 110.169 311.801 112.618L314.195 106.738L319.257 107.447L310.413 129.698C310.28 130.135 310.116 130.571 309.929 131.016C309.765 131.468 309.601 131.921 309.438 132.373C309.282 132.802 309.133 133.215 309.001 133.621C308.868 134.026 308.783 134.393 308.736 134.713C308.463 136.67 309.18 137.77 310.888 138.012C311.699 138.129 312.643 138.058 313.727 137.809C314.811 137.544 315.934 137.084 317.096 136.452C318.5 135.672 319.818 134.72 321.05 133.597C322.283 132.474 323.382 131.18 324.365 129.713C325.348 128.232 326.174 126.586 326.853 124.784C327.531 122.952 328.023 120.963 328.327 118.81C328.732 115.917 328.608 113.055 327.96 110.216C327.336 107.377 326.151 104.788 324.412 102.44C322.673 100.077 320.364 98.065 317.478 96.4038C314.593 94.727 311.099 93.5962 306.989 93.019C302.543 92.3951 298.363 92.5823 294.456 93.5806C290.572 94.5788 287.125 96.24 284.106 98.5641C281.112 100.896 278.631 103.789 276.674 107.26C274.716 110.738 273.43 114.638 272.821 118.974C272.26 122.991 272.455 126.758 273.414 130.259C274.365 133.769 275.949 136.881 278.164 139.587C280.378 142.301 283.163 144.555 286.532 146.349C289.893 148.15 293.699 149.344 297.957 149.944C302.239 150.545 306.419 150.412 310.506 149.539C314.616 148.696 318.563 146.91 322.329 144.196L324.95 145.273C323.125 146.715 321.167 147.979 319.069 149.055C316.995 150.139 314.796 150.989 312.464 151.613C310.132 152.229 307.698 152.611 305.156 152.76C302.637 152.923 300.048 152.822 297.38 152.448C292.467 151.754 288.107 150.381 284.309 148.322C280.527 146.294 277.391 143.736 274.904 140.663C272.439 137.622 270.684 134.151 269.631 130.252C268.61 126.368 268.399 122.234 269.015 117.875C269.413 115.036 270.154 112.314 271.246 109.725C272.33 107.127 273.702 104.733 275.356 102.542C277.033 100.358 278.975 98.4082 281.19 96.6924C283.428 94.961 285.877 93.5572 288.552 92.4809C291.25 91.389 294.128 90.6559 297.201 90.2894C300.297 89.8994 303.557 89.9462 306.981 90.4298C311.481 91.0693 315.349 92.3093 318.578 94.1655C321.838 95.9983 324.451 98.2366 326.424 100.888C328.405 103.517 329.762 106.441 330.503 109.67C331.252 112.899 331.384 116.213 330.908 119.622C330.596 121.829 330.043 123.895 329.247 125.83C328.475 127.772 327.531 129.55 326.408 131.164C325.309 132.786 324.069 134.221 322.696 135.477C321.347 136.709 319.92 137.739 318.414 138.55C316.925 139.361 315.412 139.938 313.867 140.266C312.347 140.601 310.873 140.671 309.422 140.468ZM309.406 116.596C309.578 115.371 309.555 114.217 309.336 113.133C309.141 112.033 308.767 111.058 308.213 110.2C307.683 109.358 306.989 108.656 306.146 108.118C305.304 107.549 304.329 107.182 303.23 107.034C301.912 106.847 300.617 107.003 299.354 107.494C298.106 107.993 296.92 108.726 295.789 109.693C294.682 110.637 293.652 111.752 292.701 113.039C291.742 114.334 290.892 115.675 290.151 117.071C289.433 118.467 288.825 119.863 288.326 121.267C287.858 122.679 287.538 123.958 287.374 125.112C286.969 127.998 287.304 130.345 288.372 132.147C289.441 133.941 291.087 135.001 293.317 135.313C294.565 135.493 295.805 135.337 297.045 134.861C298.285 134.362 299.47 133.644 300.601 132.7C301.732 131.765 302.785 130.649 303.76 129.363C304.766 128.06 305.647 126.68 306.396 125.237C307.176 123.802 307.815 122.343 308.322 120.862C308.861 119.364 309.219 117.945 309.406 116.596ZM378.194 104.133L376.517 116.112L372.368 115.527L372.618 113.764C372.828 112.244 372.93 111.074 372.922 110.247C372.945 109.397 372.867 108.773 372.696 108.375C372.532 107.954 372.282 107.697 371.947 107.595C371.643 107.478 371.268 107.393 370.824 107.33L351.35 104.585L348.963 121.563L361.621 123.342C361.863 123.381 362.073 123.396 362.253 123.396C362.424 123.373 362.596 123.256 362.744 123.053C362.9 122.827 363.056 122.445 363.204 121.922C363.376 121.392 363.571 120.62 363.789 119.606L366.729 120.019L365.068 131.85L362.128 131.437C362.198 130.423 362.221 129.635 362.198 129.082C362.182 128.505 362.112 128.083 362.003 127.818C361.894 127.53 361.746 127.35 361.559 127.272C361.364 127.194 361.137 127.14 360.872 127.101L348.433 125.346L345.867 143.65L365.676 146.435C366.238 146.513 366.69 146.466 367.041 146.294C367.416 146.099 367.728 145.686 367.962 145.07C368.219 144.461 368.453 143.596 368.663 142.473C368.866 141.35 369.1 139.899 369.35 138.113L373.46 138.69L371.666 151.481L332.008 145.896L332.515 142.254L336.734 142.847C337.327 142.933 337.787 142.909 338.13 142.785C338.473 142.66 338.739 142.457 338.926 142.184C339.113 141.911 339.246 141.607 339.316 141.264C339.394 140.897 339.456 140.539 339.511 140.164L344.229 106.543C344.307 105.958 344.37 105.451 344.401 105.03C344.463 104.593 344.44 104.211 344.331 103.899C344.253 103.587 344.05 103.329 343.73 103.134C343.434 102.947 342.981 102.807 342.365 102.721L338.442 102.167L338.941 98.6031L378.194 104.133ZM383.856 104.85C385.314 105.108 386.843 105.349 388.426 105.568C390.041 105.802 391.507 106.004 392.833 106.192C392.957 106.207 393.332 106.262 393.971 106.348C394.634 106.418 395.344 106.504 396.1 106.613C396.857 106.722 397.567 106.823 398.23 106.909C398.916 106.987 399.345 107.034 399.516 107.057L408.485 148.72C408.532 148.595 408.836 147.994 409.413 146.903C410.022 145.787 410.786 144.352 411.699 142.613C412.65 140.843 413.711 138.87 414.888 136.694C416.074 134.486 417.275 132.24 418.491 129.963C419.732 127.662 420.948 125.424 422.126 123.24C423.311 121.033 424.372 119.06 425.316 117.321C426.259 115.558 427.024 114.115 427.601 113C428.209 111.885 428.544 111.269 428.607 111.152C428.708 111.167 428.966 111.206 429.379 111.261C429.792 111.323 430.284 111.401 430.845 111.503C431.407 111.581 431.992 111.682 432.6 111.791C433.232 111.877 433.832 111.978 434.394 112.08C434.955 112.158 435.431 112.228 435.821 112.283C436.211 112.337 436.46 112.368 436.554 112.384C437.17 112.47 437.817 112.563 438.496 112.657C439.206 112.758 439.908 112.86 440.586 112.953C441.304 113.024 441.99 113.109 442.653 113.203C443.316 113.273 443.932 113.336 444.493 113.39L443.987 117.024L441.709 116.705C440.758 116.572 440.001 116.525 439.447 116.572C438.917 116.603 438.519 116.705 438.239 116.892C437.966 117.056 437.786 117.29 437.693 117.602C437.599 117.914 437.521 118.28 437.467 118.693L432.647 153.017C432.538 153.805 432.506 154.421 432.538 154.873C432.6 155.333 432.764 155.692 433.021 155.957C433.286 156.191 433.676 156.371 434.183 156.495C434.713 156.62 435.392 156.737 436.226 156.854L438.465 157.174L437.95 160.808C437.1 160.691 436.265 160.574 435.462 160.457C434.682 160.325 433.863 160.2 433.005 160.075C432.171 159.958 431.282 159.833 430.33 159.701C429.379 159.537 428.318 159.381 427.141 159.209C426.236 159.085 425.425 158.983 424.715 158.905C424.029 158.812 423.397 158.726 422.804 158.64C422.219 158.554 421.642 158.492 421.081 158.437C420.543 158.359 419.966 158.281 419.357 158.188L419.864 154.553L422.063 154.865C423.046 154.998 423.81 155.037 424.372 154.967C424.957 154.873 425.394 154.694 425.682 154.436C425.986 154.179 426.197 153.859 426.298 153.469C426.408 153.064 426.493 152.611 426.563 152.128L431.781 114.973L427.211 123.248L408.969 156.729L404.828 156.144C404.25 153.688 403.666 151.122 403.065 148.439C402.472 145.756 401.864 143.05 401.248 140.312C400.663 137.559 400.062 134.814 399.446 132.077C398.838 129.324 398.245 126.641 397.66 124.036C397.075 121.431 396.522 118.927 395.983 116.525C395.445 114.131 394.938 111.908 394.447 109.865L389.214 147.168C389.113 147.877 389.074 148.447 389.089 148.868C389.128 149.273 389.276 149.593 389.518 149.827C389.76 150.061 390.126 150.241 390.633 150.365C391.148 150.482 391.827 150.607 392.684 150.724L394.884 151.036L394.369 154.67C393.737 154.585 393.137 154.499 392.575 154.421C392.014 154.319 391.421 154.218 390.782 154.132C390.173 154.046 389.51 153.953 388.801 153.851C388.099 153.727 387.288 153.602 386.383 153.477C385.408 153.337 384.503 153.22 383.669 153.126C382.834 153.009 382.039 152.9 381.282 152.791C380.549 152.689 379.824 152.604 379.114 152.526C378.404 152.424 377.679 152.323 376.946 152.221L377.461 148.579L379.73 148.907C380.83 149.055 381.657 149.11 382.218 149.063C382.795 149.024 383.209 148.891 383.466 148.681C383.747 148.47 383.911 148.166 383.965 147.776C384.043 147.386 384.121 146.926 384.199 146.388L389.066 111.994C389.152 111.378 389.144 110.894 389.042 110.528C388.949 110.138 388.754 109.842 388.457 109.623C388.192 109.413 387.802 109.241 387.295 109.124C386.812 109.007 386.219 108.898 385.509 108.796L383.341 108.492L383.856 104.85ZM470.098 116.993C473.108 117.414 475.651 118.116 477.741 119.083C479.823 120.05 481.492 121.236 482.74 122.632C483.988 124.036 484.838 125.627 485.282 127.413C485.735 129.175 485.821 131.063 485.54 133.075C485.259 135.079 484.682 136.873 483.808 138.448C482.95 140 481.734 141.279 480.166 142.286C478.638 143.268 476.719 143.931 474.426 144.282C472.157 144.641 469.474 144.602 466.362 144.157L457.853 142.964L455.919 156.745C455.825 157.431 455.818 157.977 455.911 158.391C456.005 158.78 456.223 159.1 456.566 159.342C456.91 159.568 457.37 159.748 457.947 159.88C458.532 159.982 459.265 160.098 460.146 160.223L462.018 160.488L461.503 164.123C460.848 164.029 460.209 163.943 459.6 163.858C458.992 163.748 458.352 163.647 457.697 163.553C457.058 163.46 456.364 163.366 455.607 163.257C454.874 163.132 454.032 163 453.08 162.867C450.826 162.547 448.822 162.274 447.059 162.056C445.289 161.83 443.558 161.596 441.842 161.354L442.357 157.72L444.259 157.985C445.383 158.149 446.264 158.203 446.888 158.172C447.519 158.11 448.003 157.977 448.331 157.774C448.658 157.572 448.869 157.291 448.97 156.924C449.071 156.566 449.157 156.144 449.227 155.653L454.102 120.885C454.18 120.323 454.172 119.871 454.071 119.536C453.969 119.193 453.696 118.92 453.252 118.709C452.831 118.475 452.199 118.288 451.349 118.14C450.499 117.968 449.376 117.789 447.98 117.594L448.494 113.952L470.098 116.993ZM458.384 139.181L465.395 140.164C469.521 140.749 472.687 140.39 474.894 139.103C477.125 137.793 478.466 135.508 478.918 132.248C479.145 130.657 479.121 129.222 478.856 127.935C478.583 126.648 478.029 125.518 477.195 124.551C476.36 123.583 475.214 122.788 473.755 122.156C472.297 121.501 470.48 121.018 468.304 120.713L461.113 119.7L458.384 139.181ZM499.804 170.307C497.48 169.98 495.671 169.364 494.376 168.451C493.081 167.547 492.153 166.353 491.592 164.879C491.054 163.374 490.804 161.604 490.835 159.56C490.905 157.494 491.124 155.154 491.49 152.533L493.12 140.882C493.206 140.273 493.214 139.782 493.144 139.423C493.089 139.065 492.894 138.792 492.543 138.589C492.2 138.394 491.67 138.23 490.968 138.105C490.289 137.988 489.369 137.848 488.223 137.684L488.667 134.486C489.743 134.635 490.75 134.775 491.678 134.908C492.606 135.04 493.51 135.165 494.392 135.29C495.304 135.391 496.209 135.5 497.121 135.602C498.057 135.68 499.055 135.773 500.108 135.875L497.386 155.271C497.176 156.815 497.028 158.258 496.965 159.599C496.926 160.941 497.067 162.111 497.379 163.101C497.706 164.099 498.26 164.903 499.016 165.511C499.804 166.119 500.912 166.525 502.331 166.728C503.649 166.915 504.881 166.946 506.02 166.829C507.182 166.696 508.258 166.431 509.233 166.049C510.216 165.636 511.097 165.113 511.885 164.474C512.673 163.834 513.351 163.156 513.928 162.438C514.108 161.541 514.256 160.644 514.381 159.763C514.505 158.858 514.63 157.938 514.763 157.01L516.541 144.368C516.634 143.705 516.642 143.198 516.564 142.831C516.517 142.457 516.315 142.153 515.948 141.927C515.605 141.701 515.082 141.529 514.373 141.404C513.671 141.279 512.712 141.131 511.518 140.96L511.963 137.762C513.827 138.027 515.722 138.285 517.656 138.526C519.614 138.784 521.587 138.979 523.56 139.135L519.637 167.063C519.575 167.508 519.59 167.866 519.676 168.155C519.762 168.42 519.98 168.638 520.331 168.81C520.706 168.989 521.228 169.138 521.914 169.255C522.593 169.379 523.498 169.52 524.621 169.676L524.161 172.943C521.961 172.639 519.965 172.366 518.179 172.14C516.393 171.914 514.661 171.711 512.992 171.524L513.679 166.603C511.729 168.225 509.576 169.348 507.221 169.964C504.874 170.557 502.401 170.666 499.804 170.307ZM550.763 177.475C547.994 177.093 545.647 176.219 543.721 174.878C541.81 173.536 540.273 171.696 539.103 169.356L538.269 175.08C537.489 174.948 536.561 174.792 535.485 174.612C534.44 174.464 533.371 174.308 532.303 174.129C531.226 173.981 530.213 173.825 529.261 173.669C528.333 173.536 527.6 173.435 527.062 173.357L527.522 170.081C528.863 170.276 529.908 170.37 530.657 170.378C531.406 170.378 531.952 170.3 532.303 170.12C532.677 169.949 532.911 169.707 533.005 169.395C533.122 169.091 533.215 168.709 533.278 168.272L538.37 131.928C538.441 131.437 538.386 131.055 538.199 130.774C538.012 130.478 537.7 130.236 537.255 130.049C536.826 129.862 536.28 129.706 535.594 129.589C534.915 129.464 534.12 129.331 533.223 129.175L533.691 125.837C535.82 126.134 537.848 126.407 539.782 126.656C541.724 126.906 543.572 127.124 545.343 127.327L542.629 147.175C544.29 145.491 546.201 144.274 548.377 143.526C550.552 142.785 552.939 142.597 555.528 142.964C557.954 143.299 560.091 144.032 561.955 145.14C563.819 146.255 565.347 147.667 566.525 149.383C567.734 151.098 568.56 153.064 569.028 155.279C569.52 157.47 569.574 159.888 569.208 162.54C568.841 165.105 568.139 167.398 567.086 169.395C566.034 171.399 564.7 173.06 563.093 174.379C561.487 175.681 559.638 176.601 557.54 177.163C555.442 177.716 553.181 177.818 550.763 177.475ZM553.742 146.606C552.011 146.364 550.396 146.458 548.915 146.903C547.456 147.347 546.162 148.065 545.023 149.055C543.915 150.022 542.987 151.317 542.231 152.931C541.49 154.522 540.967 156.378 540.671 158.484C540.375 160.566 540.375 162.462 540.655 164.177C540.936 165.893 541.474 167.391 542.27 168.677C543.065 169.964 544.095 171.017 545.382 171.852C546.661 172.655 548.174 173.177 549.913 173.427C551.598 173.661 553.173 173.56 554.631 173.115C556.09 172.671 557.377 171.93 558.492 170.885C559.638 169.824 560.59 168.506 561.331 166.938C562.079 165.347 562.602 163.507 562.891 161.424C563.179 159.365 563.163 157.501 562.852 155.832C562.563 154.171 562.025 152.682 561.229 151.371C560.442 150.061 559.404 149 558.125 148.197C556.87 147.37 555.411 146.84 553.742 146.606Z" fill="black"/>
<path d="M411.012 308.717L423.257 356.962L477.585 362.273L430.83 386.777L443.074 435.022L401.926 401.923L355.163 426.428L376.494 381.466L335.354 348.367L389.682 353.678L411.012 308.717Z" fill="#FFFF00"/>
</svg>
