<svg width="236" height="217" viewBox="0 0 236 217" fill="none" xmlns="http://www.w3.org/2000/svg">
<g filter="url(#filter0_d_1_18)">
<path d="M115.444 35.6025C119.463 27.1456 131.86 28.3559 134.167 37.4306L143.344 73.52C144.382 77.6041 147.87 80.599 152.064 81.0085L190.363 84.7478C200.255 85.7137 202.833 98.9542 194.026 103.561L163.04 119.771C158.934 121.919 156.842 126.606 157.984 131.096L166.399 164.193C168.765 173.499 157.932 180.467 150.446 174.455L119.282 149.427C116.184 146.938 111.906 146.521 108.385 148.363L72.9686 166.89C64.4608 171.341 55.18 162.409 59.3014 153.737L73.9599 122.892C75.9488 118.708 74.8024 113.705 71.1897 110.803L43.9239 88.9058C36.1746 82.6822 41.2653 70.1905 51.1574 71.1563L89.4565 74.8957C93.6506 75.3052 97.6513 73.0415 99.4601 69.2354L115.444 35.6025Z" fill="#FFCC00"/>
</g>
<path d="M123.531 40.3137L135.799 88.5597L190.222 93.8734L143.38 118.377L155.648 166.623L114.431 133.522L67.5894 158.026L88.9573 113.064L47.7404 79.962L102.163 85.2756L123.531 40.3137Z" fill="#FFFF00"/>
<defs>
<filter id="filter0_d_1_18" x="25.1564" y="14.893" width="179.243" height="166.806" filterUnits="userSpaceOnUse" color-interpolation-filters="sRGB">
<feFlood flood-opacity="0" result="BackgroundImageFix"/>
<feColorMatrix in="SourceAlpha" type="matrix" values="0 0 0 0 0 0 0 0 0 0 0 0 0 0 0 0 0 0 127 0" result="hardAlpha"/>
<feOffset dx="-5" dy="-5"/>
<feGaussianBlur stdDeviation="5"/>
<feComposite in2="hardAlpha" operator="out"/>
<feColorMatrix type="matrix" values="0 0 0 0 0 0 0 0 0 0 0 0 0 0 0 0 0 0 1 0"/>
<feBlend mode="normal" in2="BackgroundImageFix" result="effect1_dropShadow_1_18"/>
<feBlend mode="normal" in="SourceGraphic" in2="effect1_dropShadow_1_18" result="shape"/>
</filter>
</defs>
</svg>
