<svg width="25" height="26" viewBox="0 0 17 26" fill="none" xmlns="http://www.w3.org/2000/svg">
<path d="M1 11.33V20.3492C1 23.1106 3.23858 25.3492 6 25.3492H11C13.7614 25.3492 16 23.1106 16 20.3492V11.33M1 11.33H16M1 11.33L2.17187 7.14879L3.16399 4.89303C3.43722 4.27179 3.83406 3.71268 4.33034 3.24976L4.93587 2.68492C5.43155 2.22256 6.01789 1.86824 6.65773 1.64442V1.64442C7.84059 1.23066 9.13712 1.28654 10.28 1.80054L10.7486 2.01131C11.4284 2.31704 12.0313 2.77089 12.5131 3.33965L13.2368 4.19409C13.5153 4.52283 13.7501 4.88618 13.9354 5.27512L14.8513 7.19738C14.9918 7.49221 15.103 7.80009 15.1834 8.11662L16 11.33M10.0081 19.5734L10.1676 18.3419C10.2776 17.4931 9.61653 16.7409 8.76062 16.7409V16.7409C7.88661 16.7409 7.22045 17.5236 7.36012 18.3863L7.55857 19.6122C7.78668 21.0213 9.82468 20.989 10.0081 19.5734Z" stroke="black"/>
<path d="M1 11.33V20.3492C1 23.1106 3.23858 25.3492 6 25.3492H11C13.7614 25.3492 16 23.1106 16 20.3492V11.33M1 11.33H16M1 11.33L2.17187 7.14879L3.16399 4.89303C3.43722 4.27179 3.83406 3.71268 4.33034 3.24976L4.93587 2.68492C5.43155 2.22256 6.01789 1.86824 6.65773 1.64442V1.64442C7.84059 1.23066 9.13712 1.28654 10.28 1.80054L10.7486 2.01131C11.4284 2.31704 12.0313 2.77089 12.5131 3.33965L13.2368 4.19409C13.5153 4.52283 13.7501 4.88618 13.9354 5.27512L14.8513 7.19738C14.9918 7.49221 15.103 7.80009 15.1834 8.11662L16 11.33M10.0081 19.5734L10.1676 18.3419C10.2776 17.4931 9.61653 16.7409 8.76062 16.7409V16.7409C7.88661 16.7409 7.22045 17.5236 7.36012 18.3863L7.55857 19.6122C7.78668 21.0213 9.82468 20.989 10.0081 19.5734Z" stroke="black"/>
<ellipse cx="9" cy="15" rx="3" ry="2" fill="black"/>
</svg>
