<svg width="30" height="35" viewBox="0 0 88 104" fill="none" xmlns="http://www.w3.org/2000/svg">
<path fill-rule="evenodd" clip-rule="evenodd" d="M85.9151 2.0856L72.6549 66.4922C70.0687 79.0538 56.9253 86.3835 44.8793 81.9821L41.2644 80.6613L21.0765 101.367L10.2057 69.272C-0.600368 65.0643 -1.67522 50.0206 8.62841 44.3818L85.9151 2.0856ZM10.7913 67.3526C1.69118 63.6786 0.828303 50.9304 9.58856 46.1363L77.0204 9.23324L10.7913 67.3526ZM76.7958 12.0913L12.1613 68.8114L21.4093 96.1151L27.5914 74.036L76.7958 12.0913ZM23.5195 95.9963L39.2397 79.8729L29.1627 75.8421L23.5195 95.9963ZM30.1184 74.0703L41.3574 78.5659L45.5656 80.1036C56.4645 84.0858 68.3561 77.4541 70.696 66.0889L82.675 7.90531L30.1184 74.0703Z" fill="#16082F" stroke="black" stroke-width="2"/>
</svg>
