<svg width="35" height="30" viewBox="0 0 54 50" fill="none" xmlns="http://www.w3.org/2000/svg">
<path d="M11 46.25V33.75C11 32.2312 12.2312 31 13.75 31C15.2688 31 16.5 32.2312 16.5 33.75V46.25C16.5 47.7688 15.2688 49 13.75 49C12.2312 49 11 47.7688 11 46.25Z" fill="#16082F"/>
<path d="M27.5 46.75V20.75C27.5 19.5074 26.4926 18.5 25.25 18.5C24.0074 18.5 23 19.5074 23 20.75V46.75C23 47.9926 24.0074 49 25.25 49C26.4926 49 27.5 47.9926 27.5 46.75Z" fill="#16082F"/>
<path d="M35 46.5V25.5C35 24.1193 36.1193 23 37.5 23C38.8807 23 40 24.1193 40 25.5V46.5C40 47.8807 38.8807 49 37.5 49C36.1193 49 35 47.8807 35 46.5Z" fill="#16082F"/>
<path d="M46 45.75V18.25C46 16.4551 47.4551 15 49.25 15C51.0449 15 52.5 16.4551 52.5 18.25V45.75C52.5 47.5449 51.0449 49 49.25 49C47.4551 49 46 47.5449 46 45.75Z" fill="#16082F"/>
<path d="M11 46.25V33.75C11 32.2312 12.2312 31 13.75 31C15.2688 31 16.5 32.2312 16.5 33.75V46.25C16.5 47.7688 15.2688 49 13.75 49C12.2312 49 11 47.7688 11 46.25Z" stroke="black" stroke-width="2"/>
<path d="M27.5 46.75V20.75C27.5 19.5074 26.4926 18.5 25.25 18.5C24.0074 18.5 23 19.5074 23 20.75V46.75C23 47.9926 24.0074 49 25.25 49C26.4926 49 27.5 47.9926 27.5 46.75Z" stroke="black" stroke-width="2"/>
<path d="M35 46.5V25.5C35 24.1193 36.1193 23 37.5 23C38.8807 23 40 24.1193 40 25.5V46.5C40 47.8807 38.8807 49 37.5 49C36.1193 49 35 47.8807 35 46.5Z" stroke="black" stroke-width="2"/>
<path d="M46 45.75V18.25C46 16.4551 47.4551 15 49.25 15C51.0449 15 52.5 16.4551 52.5 18.25V45.75C52.5 47.5449 51.0449 49 49.25 49C47.4551 49 46 47.5449 46 45.75Z" stroke="black" stroke-width="2"/>
<circle cx="11.5" cy="11.5" r="10.75" fill="#EAEAEA" stroke="black" stroke-width="1.5"/>
<path d="M12 1V12" stroke="#16082F" stroke-width="2"/>
<path d="M13 10.5V2.5L18 6L20 10.5H13Z" fill="#16082F" stroke="#16082F"/>
<path d="M11 11L22.5 11.5" stroke="#16082F" stroke-width="2"/>
<path d="M11 1.5H11.6435C12.2124 1.5 12.779 1.56976 13.3309 1.70772V1.70772C14.1045 1.90113 14.8392 2.22611 15.5027 2.66846L16 3L16.6082 3.40545C17.2013 3.80085 17.7539 4.25387 18.2579 4.75791V4.75791C19.0806 5.58059 19.7653 6.53052 20.2856 7.57114L20.5 8L21.1286 9.57152C21.3739 10.1849 21.5 10.8394 21.5 11.5V11.5" stroke="#16082F" stroke-width="2"/>
</svg>
